<svg width="13" height="4" viewBox="0 0 13 4" fill="none" xmlns="http://www.w3.org/2000/svg">
<path d="M1.66213 3.5C1.24838 3.5 0.895671 3.35271 0.604004 3.05813C0.312337 2.76354 0.166504 2.40938 0.166504 1.99563C0.166504 1.58188 0.313796 1.22917 0.608379 0.9375C0.902962 0.645833 1.25713 0.5 1.67088 0.5C2.08463 0.5 2.43734 0.647292 2.729 0.941875C3.02067 1.23646 3.1665 1.59062 3.1665 2.00437C3.1665 2.41812 3.01921 2.77083 2.72463 3.0625C2.43005 3.35417 2.07588 3.5 1.66213 3.5ZM6.16213 3.5C5.74838 3.5 5.39567 3.35271 5.104 3.05813C4.81234 2.76354 4.6665 2.40938 4.6665 1.99563C4.6665 1.58188 4.8138 1.22917 5.10838 0.9375C5.40296 0.645833 5.75713 0.5 6.17088 0.5C6.58463 0.5 6.93734 0.647292 7.229 0.941875C7.52067 1.23646 7.6665 1.59062 7.6665 2.00437C7.6665 2.41812 7.51921 2.77083 7.22463 3.0625C6.93005 3.35417 6.57588 3.5 6.16213 3.5ZM10.6621 3.5C10.2484 3.5 9.89567 3.35271 9.604 3.05813C9.31234 2.76354 9.1665 2.40938 9.1665 1.99563C9.1665 1.58188 9.3138 1.22917 9.60838 0.9375C9.90296 0.645833 10.2571 0.5 10.6709 0.5C11.0846 0.5 11.4373 0.647292 11.729 0.941875C12.0207 1.23646 12.1665 1.59062 12.1665 2.00437C12.1665 2.41812 12.0192 2.77083 11.7246 3.0625C11.43 3.35417 11.0759 3.5 10.6621 3.5Z" fill="white"/>
<path d="M1.66213 3.5C1.24838 3.5 0.895671 3.35271 0.604004 3.05813C0.312337 2.76354 0.166504 2.40938 0.166504 1.99563C0.166504 1.58188 0.313796 1.22917 0.608379 0.9375C0.902962 0.645833 1.25713 0.5 1.67088 0.5C2.08463 0.5 2.43734 0.647292 2.729 0.941875C3.02067 1.23646 3.1665 1.59062 3.1665 2.00437C3.1665 2.41812 3.01921 2.77083 2.72463 3.0625C2.43005 3.35417 2.07588 3.5 1.66213 3.5ZM6.16213 3.5C5.74838 3.5 5.39567 3.35271 5.104 3.05813C4.81234 2.76354 4.6665 2.40938 4.6665 1.99563C4.6665 1.58188 4.8138 1.22917 5.10838 0.9375C5.40296 0.645833 5.75713 0.5 6.17088 0.5C6.58463 0.5 6.93734 0.647292 7.229 0.941875C7.52067 1.23646 7.6665 1.59062 7.6665 2.00437C7.6665 2.41812 7.51921 2.77083 7.22463 3.0625C6.93005 3.35417 6.57588 3.5 6.16213 3.5ZM10.6621 3.5C10.2484 3.5 9.89567 3.35271 9.604 3.05813C9.31234 2.76354 9.1665 2.40938 9.1665 1.99563C9.1665 1.58188 9.3138 1.22917 9.60838 0.9375C9.90296 0.645833 10.2571 0.5 10.6709 0.5C11.0846 0.5 11.4373 0.647292 11.729 0.941875C12.0207 1.23646 12.1665 1.59062 12.1665 2.00437C12.1665 2.41812 12.0192 2.77083 11.7246 3.0625C11.43 3.35417 11.0759 3.5 10.6621 3.5Z" fill="black" fill-opacity="0.6"/>
</svg>
