<svg width="4" height="12" viewBox="0 0 4 12" fill="none" xmlns="http://www.w3.org/2000/svg">
<path d="M2.32888 12C1.91513 12 1.56242 11.8527 1.27075 11.5581C0.979085 11.2635 0.833252 10.9094 0.833252 10.4956C0.833252 10.0819 0.980543 9.72917 1.27513 9.4375C1.56971 9.14583 1.92388 9 2.33763 9C2.75138 9 3.10409 9.14729 3.39575 9.44188C3.68742 9.73646 3.83325 10.0906 3.83325 10.5044C3.83325 10.9181 3.68596 11.2708 3.39138 11.5625C3.09679 11.8542 2.74263 12 2.32888 12ZM2.32888 7.5C1.91513 7.5 1.56242 7.35271 1.27075 7.05813C0.979085 6.76354 0.833252 6.40938 0.833252 5.99563C0.833252 5.58188 0.980543 5.22917 1.27513 4.9375C1.56971 4.64583 1.92388 4.5 2.33763 4.5C2.75138 4.5 3.10409 4.64729 3.39575 4.94188C3.68742 5.23646 3.83325 5.59062 3.83325 6.00437C3.83325 6.41813 3.68596 6.77083 3.39138 7.0625C3.09679 7.35417 2.74263 7.5 2.32888 7.5ZM2.32888 3C1.91513 3 1.56242 2.85271 1.27075 2.55812C0.979085 2.26354 0.833252 1.90937 0.833252 1.49562C0.833252 1.08187 0.980543 0.729167 1.27513 0.4375C1.56971 0.145833 1.92388 0 2.33763 0C2.75138 0 3.10409 0.147292 3.39575 0.441875C3.68742 0.736459 3.83325 1.09063 3.83325 1.50438C3.83325 1.91813 3.68596 2.27083 3.39138 2.5625C3.09679 2.85417 2.74263 3 2.32888 3Z" fill="white"/>
<path d="M2.32888 12C1.91513 12 1.56242 11.8527 1.27075 11.5581C0.979085 11.2635 0.833252 10.9094 0.833252 10.4956C0.833252 10.0819 0.980543 9.72917 1.27513 9.4375C1.56971 9.14583 1.92388 9 2.33763 9C2.75138 9 3.10409 9.14729 3.39575 9.44188C3.68742 9.73646 3.83325 10.0906 3.83325 10.5044C3.83325 10.9181 3.68596 11.2708 3.39138 11.5625C3.09679 11.8542 2.74263 12 2.32888 12ZM2.32888 7.5C1.91513 7.5 1.56242 7.35271 1.27075 7.05813C0.979085 6.76354 0.833252 6.40938 0.833252 5.99563C0.833252 5.58188 0.980543 5.22917 1.27513 4.9375C1.56971 4.64583 1.92388 4.5 2.33763 4.5C2.75138 4.5 3.10409 4.64729 3.39575 4.94188C3.68742 5.23646 3.83325 5.59062 3.83325 6.00437C3.83325 6.41813 3.68596 6.77083 3.39138 7.0625C3.09679 7.35417 2.74263 7.5 2.32888 7.5ZM2.32888 3C1.91513 3 1.56242 2.85271 1.27075 2.55812C0.979085 2.26354 0.833252 1.90937 0.833252 1.49562C0.833252 1.08187 0.980543 0.729167 1.27513 0.4375C1.56971 0.145833 1.92388 0 2.33763 0C2.75138 0 3.10409 0.147292 3.39575 0.441875C3.68742 0.736459 3.83325 1.09063 3.83325 1.50438C3.83325 1.91813 3.68596 2.27083 3.39138 2.5625C3.09679 2.85417 2.74263 3 2.32888 3Z" fill="black" fill-opacity="0.6"/>
</svg>
