<svg width="41" height="40" viewBox="0 0 41 40" fill="none" xmlns="http://www.w3.org/2000/svg">
<rect x="0.999837" y="0.333333" width="39.3333" height="39.3333" rx="5" fill="white"/>
<rect x="0.999837" y="0.333333" width="39.3333" height="39.3333" rx="5" fill="black" fill-opacity="0.1"/>
<rect x="0.999837" y="0.333333" width="39.3333" height="39.3333" rx="5" stroke="white" stroke-width="0.666667"/>
<rect x="0.999837" y="0.333333" width="39.3333" height="39.3333" rx="5" stroke="black" stroke-opacity="0.05" stroke-width="0.666667"/>
<mask id="mask0_0_1" style="mask-type:alpha" maskUnits="userSpaceOnUse" x="10" y="10" width="21" height="20">
<rect x="10.6665" y="10" width="20" height="20" fill="#D9D9D9"/>
</mask>
<g mask="url(#mask0_0_1)">
<path d="M21.0832 12.4974H17.1665C15.7664 12.4974 15.0663 12.4974 14.5315 12.7699C14.0611 13.0096 13.6787 13.392 13.439 13.8624C13.1665 14.3972 13.1665 15.0973 13.1665 16.4974V23.4974C13.1665 24.8975 13.1665 25.5976 13.439 26.1324C13.6787 26.6028 14.0611 26.9852 14.5315 27.2249C15.0663 27.4974 15.7664 27.4974 17.1665 27.4974H24.8332C25.6081 27.4974 25.9956 27.4974 26.3136 27.4122C27.1763 27.181 27.8502 26.5072 28.0813 25.6444C28.1665 25.3265 28.1665 24.939 28.1665 24.1641M26.4998 16.6641V11.6641M23.9998 14.1641H28.9998M19.4165 17.0807C19.4165 18.0012 18.6703 18.7474 17.7498 18.7474C16.8294 18.7474 16.0832 18.0012 16.0832 17.0807C16.0832 16.1603 16.8294 15.4141 17.7498 15.4141C18.6703 15.4141 19.4165 16.1603 19.4165 17.0807ZM23.1582 19.9292L16.1091 26.3374C15.7126 26.6979 15.5144 26.8781 15.4969 27.0342C15.4817 27.1695 15.5335 27.3038 15.6358 27.3937C15.7538 27.4974 16.0217 27.4974 16.5576 27.4974H24.3798C25.5791 27.4974 26.1788 27.4974 26.6498 27.2959C27.241 27.043 27.7121 26.5719 27.965 25.9807C28.1665 25.5097 28.1665 24.91 28.1665 23.7107C28.1665 23.3072 28.1665 23.1054 28.1224 22.9175C28.067 22.6814 27.9606 22.4602 27.8109 22.2694C27.6917 22.1176 27.5342 21.9915 27.2191 21.7394L24.888 19.8746C24.5727 19.6223 24.415 19.4962 24.2413 19.4517C24.0883 19.4124 23.9272 19.4175 23.7769 19.4663C23.6065 19.5217 23.457 19.6575 23.1582 19.9292Z" stroke="white" stroke-linecap="round" stroke-linejoin="round"/>
<path d="M21.0832 12.4974H17.1665C15.7664 12.4974 15.0663 12.4974 14.5315 12.7699C14.0611 13.0096 13.6787 13.392 13.439 13.8624C13.1665 14.3972 13.1665 15.0973 13.1665 16.4974V23.4974C13.1665 24.8975 13.1665 25.5976 13.439 26.1324C13.6787 26.6028 14.0611 26.9852 14.5315 27.2249C15.0663 27.4974 15.7664 27.4974 17.1665 27.4974H24.8332C25.6081 27.4974 25.9956 27.4974 26.3136 27.4122C27.1763 27.181 27.8502 26.5072 28.0813 25.6444C28.1665 25.3265 28.1665 24.939 28.1665 24.1641M26.4998 16.6641V11.6641M23.9998 14.1641H28.9998M19.4165 17.0807C19.4165 18.0012 18.6703 18.7474 17.7498 18.7474C16.8294 18.7474 16.0832 18.0012 16.0832 17.0807C16.0832 16.1603 16.8294 15.4141 17.7498 15.4141C18.6703 15.4141 19.4165 16.1603 19.4165 17.0807ZM23.1582 19.9292L16.1091 26.3374C15.7126 26.6979 15.5144 26.8781 15.4969 27.0342C15.4817 27.1695 15.5335 27.3038 15.6358 27.3937C15.7538 27.4974 16.0217 27.4974 16.5576 27.4974H24.3798C25.5791 27.4974 26.1788 27.4974 26.6498 27.2959C27.241 27.043 27.7121 26.5719 27.965 25.9807C28.1665 25.5097 28.1665 24.91 28.1665 23.7107C28.1665 23.3072 28.1665 23.1054 28.1224 22.9175C28.067 22.6814 27.9606 22.4602 27.8109 22.2694C27.6917 22.1176 27.5342 21.9915 27.2191 21.7394L24.888 19.8746C24.5727 19.6223 24.415 19.4962 24.2413 19.4517C24.0883 19.4124 23.9272 19.4175 23.7769 19.4663C23.6065 19.5217 23.457 19.6575 23.1582 19.9292Z" stroke="black" stroke-opacity="0.6" stroke-linecap="round" stroke-linejoin="round"/>
</g>
</svg>
